PathFileType	3	(X/Y/Z)	Static_01.trc
DataRate	CameraRate	NumFrames	NumMarkers	Units	OrigDataRate	OrigDataStartFrame	OrigNumFrames
200	200	10	32	mm	200	101	400
Frame#	Time	L_ASIS			R_ASIS			L_PSIS			R_PSIS			R_Knee_Med			R_Thigh_Upper			R_Knee_Lat			R_Thigh_Front			R_Thigh_Rear			L_Knee_Med			L_Thigh_Upper			L_Thigh_Front			L_Thigh_Rear			L_Knee_Lat			L_Ankle_Med			L_Shank_Upper			L_Shank_Front			L_Shank_Rear			L_Ankle_Lat			R_Ankle_Med			R_Shank_Upper			R_Shank_Rear			R_Shank_Front			R_Ankle_Lat			R_Heel			R_Toe_Tip			R_Toe_Med			R_Toe_Lat			L_Heel			L_Toe_Tip			L_Toe_Med			L_Toe_Lat			
		X1	Y1	Z1	X2	Y2	Z2	X3	Y3	Z3	X4	Y4	Z4	X5	Y5	Z5	X6	Y6	Z6	X7	Y7	Z7	X8	Y8	Z8	X9	Y9	Z9	X10	Y10	Z10	X11	Y11	Z11	X12	Y12	Z12	X13	Y13	Z13	X14	Y14	Z14	X15	Y15	Z15	X16	Y16	Z16	X17	Y17	Z17	X18	Y18	Z18	X19	Y19	Z19	X20	Y20	Z20	X21	Y21	Z21	X22	Y22	Z22	X23	Y23	Z23	X24	Y24	Z24	X25	Y25	Z25	X26	Y26	Z26	X27	Y27	Z27	X28	Y28	Z28	X29	Y29	Z29	X30	Y30	Z30	X31	Y31	Z31	X32	Y32	Z32
101	0.5	-1221.2538	1001.1629	-1910.5344	-1032.2237	1003.2736	-1710.381	-1300.1042	1045.79	-1738.6361	-1212.6912	1053.8682	-1652.0904	-1097.0299	466.57011	-1687.3654	-1044.6438	826.19768	-1597.0962	-1042.5593	502.77132	-1592.9258	-997.38562	772.73498	-1635.2441	-1044.1051	760.46891	-1584.7143	-1262.7682	465.56187	-1785.5618	-1332.8648	857.98651	-1888.8406	-1315.3945	785.94375	-1908.9081	-1359.8773	791.80104	-1845.7588	-1340.5487	487.25269	-1855.6013	-1300.3508	74.248367	-1799.2189	-1412.9871	359.90111	-1829.159	-1386.5774	303.07399	-1848.8619	-1414.6083	290.69767	-1808.5747	-1385.8276	66.038471	-1831.0127	-1084.3284	77.469088	-1616.5811	-1073.401	368.5182	-1521.7975	-1104.8624	308.63283	-1517.8808	-1048.1343	304.94017	-1535.7995	-1075.3177	63.553102	-1523.2236	-1146.1298	22.214579	-1525.5048	-956.34572	42.135516	-1629.6602	-966.63279	17.025642	-1654.2967	-963.08838	18.191646	-1535.6325	-1392.2804	25.600047	-1760.0623	-1264.0346	38.232477	-1938.5932	-1239.1106	15.013863	-1924.582	-1359.9633	10.954883	-1942.435
102	0.505	-1221.2317	1001.1329	-1910.502	-1032.1124	1003.2823	-1710.4093	-1300.0091	1045.7754	-1738.5994	-1212.5584	1053.8271	-1652.1291	-1096.9354	466.57773	-1687.3821	-1044.521	826.19979	-1597.1109	-1042.4881	502.77022	-1592.9435	-997.28065	772.73132	-1635.2654	-1043.9952	760.46985	-1584.7317	-1262.7402	465.55012	-1785.5379	-1332.8047	857.98626	-1888.7855	-1315.3614	785.93765	-1908.8754	-1359.8312	791.80741	-1845.698	-1340.5265	487.25076	-1855.5644	-1300.347	74.243317	-1799.2197	-1412.9605	359.89799	-1829.1403	-1386.5674	303.07554	-1848.8665	-1414.593	290.69944	-1808.5555	-1385.8269	66.041252	-1831.0072	-1084.3207	77.47454	-1616.5916	-1073.3542	368.51847	-1521.8097	-1104.8237	308.63175	-1517.9023	-1048.0929	304.93973	-1535.8101	-1075.3174	63.556309	-1523.228	-1146.1315	22.217445	-1525.5134	-956.34586	42.13598	-1629.6632	-966.6312	17.025338	-1654.2978	-963.09053	18.193079	-1535.6363	-1392.272	25.60221	-1760.0602	-1264.0328	38.230137	-1938.597	-1239.1062	15.012639	-1924.5839	-1359.9685	10.94939	-1942.4356
103	0.51	-1221.2115	1001.1024	-1910.4681	-1032.0014	1003.2913	-1710.4356	-1299.915	1045.7608	-1738.5636	-1212.4241	1053.7807	-1652.1741	-1096.8389	466.58683	-1687.3991	-1044.3997	826.20209	-1597.1244	-1042.4177	502.76939	-1592.9593	-997.17763	772.72756	-1635.2839	-1043.8872	760.47083	-1584.7474	-1262.714	465.53831	-1785.5105	-1332.7452	857.98544	-1888.7298	-1315.3265	785.93057	-1908.8421	-1359.7856	791.81425	-1845.6383	-1340.5054	487.24858	-1855.5272	-1300.343	74.238454	-1799.2202	-1412.9355	359.89482	-1829.12	-1386.5582	303.0767	-1848.8705	-1414.5795	290.70058	-1808.5369	-1385.8265	66.043925	-1831.0011	-1084.3117	77.480687	-1616.6022	-1073.3069	368.51861	-1521.8204	-1104.7849	308.62975	-1517.9236	-1048.0509	304.93942	-1535.8196	-1075.3167	63.558914	-1523.2322	-1146.1335	22.22027	-1525.522	-956.3458	42.136469	-1629.6657	-966.6289	17.025588	-1654.2988	-963.09205	18.194544	-1535.6399	-1392.2633	25.603854	-1760.0589	-1264.0313	38.22745	-1938.6006	-1239.1017	15.012006	-1924.5858	-1359.9747	10.944938	-1942.4372
104	0.515	-1221.192	1001.0719	-1910.4329	-1031.8912	1003.3004	-1710.4597	-1299.822	1045.7463	-1738.5287	-1212.2902	1053.7325	-1652.2209	-1096.7411	466.59734	-1687.4162	-1044.2801	826.20455	-1597.1366	-1042.3482	502.76885	-1592.9729	-997.07629	772.72381	-1635.2998	-1043.7809	760.47183	-1584.7614	-1262.6893	465.52669	-1785.4796	-1332.6861	857.98393	-1888.6737	-1315.2896	785.92264	-1908.8078	-1359.7403	791.82165	-1845.5795	-1340.4851	487.24618	-1855.4903	-1300.3388	74.233922	-1799.2203	-1412.9122	359.89178	-1829.0983	-1386.5495	303.07747	-1848.8735	-1414.5671	290.70079	-1808.519	-1385.8265	66.046481	-1830.9942	-1084.3015	77.487534	-1616.6126	-1073.2594	368.5188	-1521.8295	-1104.7462	308.62724	-1517.9438	-1048.0085	304.93937	-1535.8278	-1075.3157	63.560998	-1523.2359	-1146.1356	22.223069	-1525.5303	-956.3458	42.136667	-1629.6678	-966.62597	17.026476	-1654.2996	-963.09291	18.196186	-1535.6431	-1392.2549	25.605167	-1760.0584	-1264.03	38.22456	-1938.6039	-1239.0971	15.012044	-1924.5876	-1359.9818	10.941493	-1942.4398
105	0.52	-1221.1725	1001.042	-1910.3964	-1031.7821	1003.3097	-1710.4816	-1299.7302	1045.732	-1738.4947	-1212.1587	1053.6857	-1652.2653	-1096.6426	466.60931	-1687.4331	-1044.1624	826.20719	-1597.1475	-1042.2797	502.76857	-1592.9841	-996.97637	772.72017	-1635.3129	-1043.6766	760.47286	-1584.7734	-1262.6659	465.51551	-1785.4454	-1332.6274	857.98179	-1888.6173	-1315.2507	785.91411	-1908.7721	-1359.6953	791.8297	-1845.5214	-1340.4655	487.24368	-1855.4539	-1300.3345	74.229893	-1799.22	-1412.8908	359.88905	-1829.075	-1386.5409	303.07788	-1848.8749	-1414.5556	290.69983	-1808.5018	-1385.8267	66.049014	-1830.9866	-1084.2903	77.49518	-1616.6227	-1073.2119	368.5192	-1521.8367	-1104.7079	308.62461	-1517.9622	-1047.9658	304.93964	-1535.8345	-1075.3144	63.562645	-1523.2391	-1146.138	22.225886	-1525.5382	-956.3462	42.136224	-1629.6692	-966.62252	17.028069	-1654.3001	-963.09317	18.198117	-1535.6458	-1392.2469	25.606323	-1760.0589	-1264.0289	38.221592	-1938.6067	-1239.0924	15.012869	-1924.5893	-1359.9895	10.938902	-1942.4432
106	0.525	-1221.1521	1001.0133	-1910.3584	-1031.6744	1003.3189	-1710.501	-1299.6396	1045.7182	-1738.4614	-1212.0308	1053.6429	-1652.3036	-1096.5439	466.62278	-1687.4499	-1044.0468	826.20998	-1597.1568	-1042.2125	502.76848	-1592.9927	-996.87776	772.71665	-1635.3233	-1043.5742	760.47389	-1584.7835	-1262.6437	465.50495	-1785.408	-1332.5693	857.97918	-1888.5604	-1315.21	785.90535	-1908.7346	-1359.6504	791.83834	-1845.464	-1340.4468	487.24122	-1855.4185	-1300.3302	74.226508	-1799.2193	-1412.8712	359.88684	-1829.0504	-1386.5322	303.07803	-1848.8739	-1414.5444	290.69774	-1808.4854	-1385.8273	66.051722	-1830.9783	-1084.2782	77.503719	-1616.6324	-1073.1648	368.51988	-1521.8419	-1104.67	308.62215	-1517.978	-1047.9234	304.94021	-1535.8396	-1075.3129	63.563908	-1523.2417	-1146.1404	22.228748	-1525.5457	-956.34721	42.134901	-1629.6698	-966.61863	17.030435	-1654.3005	-963.09295	18.200381	-1535.648	-1392.2395	25.60747	-1760.0604	-1264.0279	38.21862	-1938.609	-1239.0878	15.014551	-1924.5907	-1359.9978	10.936896	-1942.4469
107	0.53	-1221.1298	1000.986	-1910.3192	-1031.5685	1003.3281	-1710.5178	-1299.5504	1045.7049	-1738.4286	-1211.9076	1053.6061	-1652.3332	-1096.4458	466.63774	-1687.4665	-1043.9336	826.21289	-1597.1645	-1042.1467	502.76847	-1592.9985	-996.78052	772.7132	-1635.3309	-1043.4739	760.47489	-1584.7913	-1262.6228	465.4951	-1785.3678	-1332.5117	857.97628	-1888.503	-1315.1681	785.89666	-1908.6948	-1359.6057	791.84743	-1845.4073	-1340.4291	487.23897	-1855.3844	-1300.3259	74.22382	-1799.218	-1412.8534	359.8853	-1829.0245	-1386.5239	303.07812	-1848.87	-1414.5336	290.69473	-1808.4695	-1385.8282	66.05483	-1830.9691	-1084.2656	77.513172	-1616.6415	-1073.1182	368.52087	-1521.8451	-1104.6328	308.61994	-1517.9912	-1047.8815	304.94094	-1535.8431	-1075.3115	63.564792	-1523.2437	-1146.1429	22.23163	-1525.5524	-956.34889	42.132632	-1629.6699	-966.61442	17.033566	-1654.3007	-963.09241	18.202925	-1535.6497	-1392.2326	25.608722	-1760.063	-1264.0271	38.215676	-1938.6108	-1239.0832	15.017048	-1924.5918	-1360.0063	10.935122	-1942.4506
108	0.535	-1221.1047	1000.9606	-1910.2791	-1031.4646	1003.3369	-1710.5319	-1299.4628	1045.6923	-1738.3962	-1211.7895	1053.5765	-1652.3528	-1096.3493	466.65408	-1687.4829	-1043.8232	826.21579	-1597.1701	-1042.0826	502.76836	-1593.0016	-996.68484	772.7097	-1635.3359	-1043.3757	760.47576	-1584.7969	-1262.6032	465.48586	-1785.3252	-1332.4547	857.97322	-1888.4452	-1315.1254	785.88828	-1908.6523	-1359.561	791.85687	-1845.3513	-1340.4123	487.23713	-1855.3521	-1300.3217	74.221759	-1799.2163	-1412.8373	359.88453	-1828.9975	-1386.516	303.07844	-1848.8624	-1414.523	290.69102	-1808.4541	-1385.8295	66.058509	-1830.9592	-1084.2527	77.523428	-1616.6501	-1073.0726	368.5221	-1521.8462	-1104.5964	308.61787	-1518.0016	-1047.8405	304.94163	-1535.8448	-1075.3101	63.565246	-1523.2451	-1146.1453	22.234461	-1525.5582	-956.35113	42.129435	-1629.6693	-966.61006	17.037316	-1654.301	-963.09168	18.205607	-1535.6508	-1392.2261	25.610142	-1760.0668	-1264.0264	38.21279	-1938.612	-1239.0789	15.020187	-1924.5927	-1360.0149	10.933247	-1942.4538
109	0.54	-1221.076	1000.9372	-1910.2381	-1031.3633	1003.3452	-1710.5433	-1299.3767	1045.6806	-1738.3639	-1211.6767	1053.5551	-1652.3614	-1096.2553	466.67165	-1687.499	-1043.7157	826.21857	-1597.1735	-1042.0203	502.76793	-1593.0018	-996.59107	772.706	-1635.3381	-1043.2798	760.47634	-1584.8	-1262.585	465.47704	-1785.2806	-1332.3983	857.97006	-1888.3869	-1315.0825	785.88035	-1908.6071	-1359.5161	791.86662	-1845.296	-1340.3966	487.23583	-1855.3218	-1300.3177	74.220177	-1799.2142	-1412.8226	359.88458	-1828.9697	-1386.5091	303.0792	-1848.8506	-1414.5125	290.68686	-1808.4392	-1385.831	66.062846	-1830.9488	-1084.2396	77.534267	-1616.6581	-1073.028	368.52345	-1521.8454	-1104.5608	308.61581	-1518.0097	-1047.8008	304.94206	-1535.8449	-1075.309	63.565206	-1523.2459	-1146.1476	22.237165	-1525.5632	-956.35382	42.125307	-1629.6684	-966.60572	17.041447	-1654.3014	-963.09081	18.208239	-1535.6513	-1392.22	25.611768	-1760.0719	-1264.0258	38.210004	-1938.6127	-1239.0749	15.02367	-1924.5934	-1360.023	10.931137	-1942.4564
110	0.545	-1221.0428	1000.9158	-1910.1967	-1031.2648	1003.3528	-1710.5517	-1299.2923	1045.67	-1738.3316	-1211.5695	1053.5421	-1652.3586	-1096.1641	466.69028	-1687.515	-1043.6114	826.22111	-1597.1745	-1041.9601	502.76703	-1592.9993	-996.49968	772.70198	-1635.3379	-1043.1863	760.47647	-1584.8007	-1262.5684	465.46842	-1785.2347	-1332.3426	857.96678	-1888.3283	-1315.0396	785.873	-1908.5592	-1359.4708	791.87663	-1845.2414	-1340.3818	487.2352	-1855.294	-1300.3136	74.218909	-1799.212	-1412.8091	359.88545	-1828.9413	-1386.503	303.08061	-1848.8344	-1414.5018	290.68243	-1808.4245	-1385.8325	66.06787	-1830.9381	-1084.2267	77.545437	-1616.6656	-1072.9846	368.52477	-1521.8428	-1104.5262	308.61358	-1518.0156	-1047.7626	304.94205	-1535.8434	-1075.3082	63.564649	-1523.2463	-1146.1497	22.239707	-1525.5673	-956.35685	42.120261	-1629.6672	-966.60157	17.045696	-1654.3021	-963.08984	18.210662	-1535.6514	-1392.2141	25.613646	-1760.0783	-1264.0251	38.207377	-1938.613	-1239.0716	15.027085	-1924.5939	-1360.0302	10.928944	-1942.4581
